HIERARCHY
ROOT Hips
{
 OFFSET 0.000000 0.000000 0.000000
 CHANNELS 6 Xposition Yposition Zposition Yrotation Xrotation Zrotation
 JOINT Chest
 {
  OFFSET 0.000000 10.354800 0.006500
  CHANNELS 3 Yrotation Xrotation Zrotation
  JOINT Chest2
  {
   OFFSET 0.000000 10.435800 -0.013200
   CHANNELS 3 Yrotation Xrotation Zrotation
   JOINT Chest3
   {
    OFFSET 0.000000 10.393700 0.000000
    CHANNELS 3 Yrotation Xrotation Zrotation
    JOINT Chest4
    {
     OFFSET 0.000000 10.383100 0.000000
     CHANNELS 3 Yrotation Xrotation Zrotation
     JOINT Neck
     {
      OFFSET 0.000000 15.694000 0.000000
      CHANNELS 3 Yrotation Xrotation Zrotation
      JOINT Head
      {
       OFFSET 0.000000 9.711000 -0.028000
       CHANNELS 3 Yrotation Xrotation Zrotation
       End Site
       {
        OFFSET 0.000000 18.578700 -0.014800
       }
      }
     }
     JOINT RightCollar
     {
      OFFSET -3.157200 10.367500 0.000000
      CHANNELS 3 Yrotation Xrotation Zrotation
      JOINT RightShoulder
      {
       OFFSET -14.482500 0.000000 0.000000
       CHANNELS 3 Yrotation Xrotation Zrotation
       JOINT RightElbow
       {
        OFFSET 0.000000 -31.707800 0.000000
        CHANNELS 3 Yrotation Xrotation Zrotation
        JOINT RightWrist
        {
         OFFSET 0.000000 -25.659300 0.000000
         CHANNELS 3 Yrotation Xrotation Zrotation
         End Site
         {
          OFFSET 0.000000 -18.994300 0.000000
         }
        }
       }
      }
     }
     JOINT LeftCollar
     {
      OFFSET 3.157200 10.367500 0.000000
      CHANNELS 3 Yrotation Xrotation Zrotation
      JOINT LeftShoulder
      {
       OFFSET 14.482500 0.000000 0.000000
       CHANNELS 3 Yrotation Xrotation Zrotation
       JOINT LeftElbow
       {
        OFFSET 0.000000 -31.707800 0.000000
        CHANNELS 3 Yrotation Xrotation Zrotation
        JOINT LeftWrist
        {
         OFFSET 0.000000 -25.659300 0.000000
         CHANNELS 3 Yrotation Xrotation Zrotation
         End Site
         {
          OFFSET 0.000000 -18.994300 0.000000
         }
        }
       }
      }
     }
    }
   }
  }
 }
 JOINT RightHip
 {
  OFFSET -8.365600 -0.032100 -0.003200
  CHANNELS 3 Yrotation Xrotation Zrotation
  JOINT RightKnee
  {
   OFFSET 0.000000 -43.980000 0.003100
   CHANNELS 3 Yrotation Xrotation Zrotation
   JOINT RightAnkle
   {
    OFFSET 0.000000 -42.882800 0.005200
    CHANNELS 3 Yrotation Xrotation Zrotation
    JOINT RightToe
    {
     OFFSET 0.000000 -4.915500 10.826300
     CHANNELS 3 Yrotation Xrotation Zrotation
     End Site
     {
      OFFSET 0.000000 -1.517500 6.175900
     }
    }
   }
  }
 }
 JOINT LeftHip
 {
  OFFSET 8.365600 -0.032100 -0.003200
  CHANNELS 3 Yrotation Xrotation Zrotation
  JOINT LeftKnee
  {
   OFFSET 0.000000 -43.980000 0.003100
   CHANNELS 3 Yrotation Xrotation Zrotation
   JOINT LeftAnkle
   {
    OFFSET 0.000000 -42.882800 0.005200
    CHANNELS 3 Yrotation Xrotation Zrotation
    JOINT LeftToe
    {
     OFFSET 0.000000 -4.915500 10.826300
     CHANNELS 3 Yrotation Xrotation Zrotation
     End Site
     {
      OFFSET 0.000000 -1.517500 6.175900
     }
    }
   }
  }
 }
}
MOTION
Frames: 13
Frame Time: 0.008333
6.007995 126.512741 46.162023 170.087145 -20.259011 -3.640422 -0.600731 13.266265 4.377574 -0.090247 1.124734 0.374958 -0.148659 1.904974 0.634061 -0.586072 11.915804 3.934283 1.445806 20.743265 -3.616175 2.361410 -3.644032 -4.212871 1.052437 6.670485 -6.553858 2.778270 -5.623667 -3.091315 -90.871252 -60.342406 121.765032 -20.841198 -13.449200 -35.750605 -1.971825 7.510066 0.390480 3.846918 -3.380736 -2.996236 127.444890 -75.857899 -157.711777 19.321071 -3.938546 39.671490 9.490921 -62.425266 -2.839672 -83.748298 78.722637 -76.977733 4.936033 8.706802 -16.179417 -0.003410 -0.002498 -0.001548 -16.643314 -62.118669 3.642118 102.015866 85.026506 95.977836 -6.185417 -18.559658 1.455793 0.004023 -0.002205 0.001827
6.007288 126.511201 46.161840 170.109541 -20.235204 -3.639673 -0.618244 13.238718 4.370175 -0.084438 1.111352 0.372332 -0.154951 1.909683 0.635237 -0.591266 11.897005 3.932786 1.436378 20.745736 -3.611550 2.342584 -3.646202 -4.204578 1.051248 6.684226 -6.556212 2.774841 -5.609839 -3.089405 -90.922353 -60.351726 121.860434 -20.843186 -13.367941 -35.655407 -1.983809 7.506022 0.404214 3.832957 -3.377875 -2.961120 127.366165 -75.837323 -157.689522 19.303177 -3.920608 39.573179 9.494642 -62.445800 -2.870698 -83.833372 78.713328 -77.058343 4.952088 8.691843 -16.181584 -0.002903 -0.000076 -0.001318 -16.651520 -62.142296 3.628852 101.991115 85.025717 95.961520 -6.233676 -18.576830 1.450210 -0.000807 -0.003653 -0.000366
6.007285 126.510090 46.160550 170.118388 -20.219970 -3.636839 -0.622561 13.216546 4.362902 -0.088250 1.113364 0.374797 -0.151636 1.898471 0.630983 -0.598568 11.880390 3.935684 1.412833 20.721021 -3.610660 2.335452 -3.624937 -4.198787 1.055793 6.652009 -6.577985 2.754674 -5.563619 -3.086458 -90.937922 -60.342960 121.933057 -20.838737 -13.290821 -35.557423 -2.009570 7.488976 0.425362 3.838480 -3.362078 -2.940349 127.277762 -75.819184 -157.659750 19.301697 -3.918356 39.575796 9.516967 -62.459034 -2.904775 -83.856193 78.721004 -77.072401 4.952593 8.688324 -16.183514 -0.003359 -0.000159 -0.001525 -16.666040 -62.153352 3.635417 101.910729 85.018384 95.876016 -6.262348 -18.575075 1.452547 -0.000538 -0.001861 -0.000244
6.007577 126.508892 46.159593 170.124665 -20.204050 -3.634962 -0.625650 13.194795 4.362733 -0.090967 1.114561 0.373086 -0.149976 1.879774 0.630878 -0.607529 11.869964 3.933904 1.392805 20.709216 -3.609465 2.322109 -3.621626 -4.195019 1.058567 6.663356 -6.586734 2.738211 -5.558285 -3.101401 -90.965398 -60.335972 122.020284 -20.830258 -13.228677 -35.471116 -2.011144 7.515896 0.427349 3.819815 -3.391887 -2.904514 127.184343 -75.799670 -157.626272 19.300401 -3.919311 39.605599 9.530426 -62.472703 -2.926855 -83.862096 78.727364 -77.074423 4.956398 8.686614 -16.191633 -0.004156 0.000603 -0.001887 -16.677920 -62.167784 3.640581 101.872984 85.015451 95.835524 -6.272225 -18.569306 1.453742 -0.000384 -0.002472 -0.000174
6.007925 126.507582 46.159114 170.127821 -20.186674 -3.632931 -0.630271 13.169543 4.361396 -0.091309 1.111158 0.372479 -0.150586 1.882673 0.629847 -0.612713 11.843894 3.933290 1.374910 20.702804 -3.609626 2.314400 -3.615973 -4.193473 1.061355 6.690815 -6.589672 2.727564 -5.574045 -3.125356 -90.996634 -60.332100 122.110658 -20.818624 -13.177655 -35.402852 -2.024750 7.519051 0.437222 3.816980 -3.387448 -2.888559 127.132746 -75.777828 -157.642432 19.296949 -3.883094 39.478873 9.544702 -62.491933 -2.940693 -83.882378 78.724865 -77.093566 4.954427 8.686752 -16.193370 -0.003608 0.000079 -0.001638 -16.689930 -62.184596 3.648668 101.834053 85.010512 95.790846 -6.263734 -18.551774 1.460084 0.001447 -0.002203 0.000657
6.007215 126.506273 46.158553 170.129343 -20.170158 -3.624999 -0.634848 13.147576 4.354684 -0.091517 1.107279 0.371696 -0.152124 1.859305 0.630378 -0.616415 11.842035 3.931814 1.353832 20.693292 -3.610697 2.328344 -3.584969 -4.197387 1.060878 6.692311 -6.595737 2.716927 -5.589124 -3.164781 -90.990064 -60.310393 122.165518 -20.804102 -13.130266 -35.351864 -2.034305 7.519300 0.443296 3.821175 -3.361717 -2.887778 127.150535 -75.752690 -157.746935 19.309310 -3.860769 39.426434 9.568411 -62.513633 -2.961818 -83.914371 78.721370 -77.128423 4.957876 8.689528 -16.194446 -0.001972 -0.002503 -0.000895 -16.689944 -62.202813 3.640342 101.770085 85.010917 95.716547 -6.223376 -18.501741 1.474483 0.001534 0.002906 0.000697
6.006405 126.505330 46.157361 170.133799 -20.158986 -3.617826 -0.645146 13.129407 4.349335 -0.087666 1.091914 0.371657 -0.153325 1.873576 0.626667 -0.618267 11.825022 3.931966 1.329454 20.672207 -3.611462 2.266563 -3.641952 -4.185165 1.061082 6.681505 -6.605712 2.717922 -5.560498 -3.159956 -91.082758 -60.326941 122.314364 -20.787841 -13.085705 -35.312553 -2.060559 7.473860 0.461243 3.788618 -3.363831 -2.853108 126.892491 -75.742396 -157.464839 19.333449 -3.843697 39.354916 9.584457 -62.524484 -2.982196 -83.911757 78.723398 -77.127650 4.929139 8.690247 -16.192842 -0.006287 -0.000639 -0.002855 -16.682729 -62.211760 3.628138 101.733220 85.018213 95.671532 -6.216435 -18.492064 1.485486 -0.000985 0.004224 -0.000447
6.007405 126.504763 46.156278 170.139774 -20.151476 -3.622326 -0.644157 13.103099 4.355607 -0.092213 1.097719 0.370207 -0.154606 1.877916 0.625804 -0.620199 11.825128 3.932283 1.302763 20.631024 -3.611794 2.224068 -3.678374 -4.178605 1.064225 6.653319 -6.611610 2.711874 -5.561527 -3.174813 -91.126658 -60.323039 122.410885 -20.771991 -13.037691 -35.269836 -2.074282 7.445657 0.471264 3.767187 -3.374033 -2.832443 126.735852 -75.732181 -157.314697 19.369260 -3.830106 39.283778 9.580533 -62.534772 -2.974684 -83.926161 78.716967 -77.143366 4.945106 8.691262 -16.197991 -0.003000 -0.002969 -0.001362 -16.678038 -62.214788 3.629390 101.762380 85.026269 95.699985 -6.215520 -18.490139 1.496745 -0.000425 0.006395 -0.000193
6.009113 126.504328 46.155541 170.146610 -20.145109 -3.632499 -0.647947 13.091558 4.364389 -0.092600 1.088492 0.369348 -0.152860 1.876338 0.627267 -0.623022 11.811085 3.935559 1.268798 20.607647 -3.617231 2.195424 -3.701981 -4.175157 1.068644 6.649334 -6.622583 2.713958 -5.566030 -3.183653 -91.187056 -60.319125 122.509713 -20.761011 -12.980812 -35.214025 -2.089136 7.448089 0.475339 3.769552 -3.357778 -2.834154 126.658379 -75.651914 -157.400366 19.373474 -3.806993 39.345619 9.551612 -62.542875 -2.932109 -83.905620 78.702339 -77.134945 4.938208 8.695590 -16.194174 0.001760 -0.004597 0.000799 -16.685071 -62.218431 3.639860 101.834183 85.031328 95.776344 -6.211369 -18.493247 1.503231 0.001427 0.007515 0.000648
6.009764 126.503848 46.154866 170.151394 -20.139392 -3.637224 -0.651074 13.079589 4.367988 -0.096636 1.078293 0.367109 -0.153619 1.851452 0.625558 -0.637362 11.781992 3.937697 1.245380 20.621293 -3.621996 2.165647 -3.726938 -4.172358 1.096696 6.672924 -6.631293 2.737770 -5.596473 -3.206788 -91.205724 -60.295323 122.533504 -20.756051 -12.916146 -35.146773 -2.081768 7.510360 0.473722 3.734912 -3.392638 -2.809522 126.418884 -75.576811 -157.237627 19.384992 -3.776835 39.353595 9.536629 -62.548286 -2.910441 -83.878765 78.700102 -77.119039 4.914868 8.697439 -16.184611 0.000322 -0.003399 0.000146 -16.691597 -62.222889 3.645764 101.908925 85.034677 95.851713 -6.202948 -18.507361 1.502374 0.001481 0.006846 0.000672
6.009619 126.503329 46.154144 170.154375 -20.134610 -3.637486 -0.658172 13.062379 4.363556 -0.096212 1.082354 0.368603 -0.156381 1.837025 0.624259 -0.637997 11.786436 3.939169 1.208458 20.579448 -3.627605 2.131939 -3.753015 -4.169904 1.103151 6.685503 -6.632487 2.756927 -5.634142 -3.221090 -91.286629 -60.280065 122.645375 -20.753283 -12.839946 -35.068690 -2.094109 7.493956 0.484311 3.701442 -3.437401 -2.790300 126.067871 -75.520654 -156.908992 19.409107 -3.741801 39.326661 9.536550 -62.553347 -2.905131 -83.887436 78.688827 -77.133241 4.902458 8.696266 -16.178919 -0.000626 -0.002718 -0.000284 -16.688149 -62.227252 3.644058 101.952404 85.039459 95.899918 -6.228378 -18.525013 1.496043 -0.001589 0.005277 -0.000722
6.009941 126.502983 46.153074 170.153421 -20.133256 -3.638689 -0.664375 13.045001 4.361736 -0.093501 1.089208 0.369262 -0.155529 1.834661 0.624204 -0.643210 11.779138 3.939474 1.170384 20.537545 -3.634840 2.093919 -3.779515 -4.167539 1.121050 6.679829 -6.637143 2.768707 -5.657671 -3.229159 -91.373210 -60.261244 122.761122 -20.751539 -12.749013 -34.979104 -2.121009 7.460196 0.496410 3.726925 -3.394176 -2.801562 125.944577 -75.435872 -156.854756 19.437039 -3.701356 39.299064 9.539470 -62.556325 -2.900739 -83.904624 78.681636 -77.151023 4.893736 8.695113 -16.178099 -0.000733 -0.003941 -0.000333 -16.672105 -62.226689 3.637025 102.076197 85.057281 96.027932 -6.213286 -18.556944 1.489927 -0.002733 0.003676 -0.001241
6.010740 126.502634 46.151924 170.154371 -20.132692 -3.642695 -0.667067 13.028672 4.365025 -0.093853 1.086157 0.368594 -0.155035 1.841736 0.623767 -0.658782 11.712963 3.937974 1.159362 20.585971 -3.637755 2.028421 -3.834554 -4.162492 1.136177 6.737385 -6.636791 2.786390 -5.692391 -3.241405 -91.463707 -60.242551 122.881627 -20.753036 -12.645979 -34.881725 -2.118391 7.524618 0.495573 3.706133 -3.427396 -2.803548 125.774598 -75.392921 -156.704825 19.481404 -3.667394 39.251994 9.536833 -62.559441 -2.892837 -83.944033 78.671559 -77.194547 4.897861 8.691171 -16.171612 -0.002459 -0.004637 -0.001116 -16.683469 -62.222133 3.654420 102.265921 85.067024 96.213553 -6.188208 -18.621993 1.473371 -0.000047 -0.000987 -0.000021
